<svg width="512" height="512" viewBox="0 0 512 512" fill="none" xmlns="http://www.w3.org/2000/svg">
  <rect width="512" height="512" rx="112" fill="#0F3D35"/>
  <rect x="86" y="104" width="340" height="308" rx="44" fill="#F8FBF7"/>
  <rect x="86" y="104" width="340" height="88" rx="44" fill="#126B5A"/>
  <path d="M86 148C86 123.699 105.699 104 130 104H382C406.301 104 426 123.699 426 148V192H86V148Z" fill="#126B5A"/>
  <rect x="140" y="72" width="38" height="92" rx="19" fill="#D5F4EC"/>
  <rect x="334" y="72" width="38" height="92" rx="19" fill="#D5F4EC"/>
  <rect x="132" y="236" width="76" height="54" rx="14" fill="#D5F4EC"/>
  <rect x="218" y="236" width="76" height="54" rx="14" fill="#D5F4EC"/>
  <rect x="304" y="236" width="76" height="54" rx="14" fill="#D5F4EC"/>
  <rect x="132" y="312" width="76" height="54" rx="14" fill="#D5F4EC"/>
  <rect x="218" y="312" width="76" height="54" rx="14" fill="#126B5A"/>
  <rect x="304" y="312" width="76" height="54" rx="14" fill="#D5F4EC"/>
  <circle cx="256" cy="339" r="14" fill="#F8FBF7"/>
  <path d="M198 154C207.389 137.876 224.879 127 245 127H267C287.121 127 304.611 137.876 314 154H198Z" fill="#F8FBF7"/>
  <path d="M216 154H296V172C296 185.255 285.255 196 272 196H240C226.745 196 216 185.255 216 172V154Z" fill="#F8FBF7"/>
  <path d="M228 154C228 144.059 236.059 136 246 136H266C275.941 136 284 144.059 284 154H228Z" fill="#0F3D35"/>
  <path d="M234 176H278" stroke="#0F3D35" stroke-width="14" stroke-linecap="round"/>
</svg>
